<?xml version="1.0" encoding="UTF-8"?>
<svg xmlns="http://www.w3.org/2000/svg" viewBox="0 0 200 200">
  <path fill="black" d="
    M 14.337 38.893
    C 33.446 56.409 52.554 73.925 71.663 91.441
    C 76.820 96.168 76.820 103.832 71.663 108.559
    C 52.554 126.075 33.446 143.591 14.337 161.107
    C 9.180 165.835 5.000 163.996 5.000 157.000
    C 5.000 119.000 5.000 81.000 5.000 43.000
    C 5.000 36.004 9.180 34.165 14.337 38.893
    Z
  "/>
  <path fill="black" d="
    M 128.337 108.559
    C 147.446 126.075 166.554 143.591 185.663 161.107
    C 190.820 165.835 195.000 163.996 195.000 157.000
    C 195.000 119.000 195.000 81.000 195.000 43.000
    C 195.000 36.004 190.820 34.165 185.663 38.893
    C 166.554 56.409 147.446 73.925 128.337 91.441
    C 123.180 96.168 123.180 103.832 128.337 108.559
    Z
  "/>
</svg>
